<svg xmlns="http://www.w3.org/2000/svg" version="1.1" xmlns:xlink="http://www.w3.org/1999/xlink" xmlns:svgjs="http://svgjs.dev/svgjs" width="1000" height="1000" viewBox="0 0 1000 1000"><rect width="1000" height="1000" fill="#545f66"></rect><g transform="matrix(0.7,0,0,0.7,149.57575757575756,282.1265587044535)"><svg viewBox="0 0 396 247" data-background-color="#545f66" preserveAspectRatio="xMidYMid meet" height="623" width="1000" xmlns="http://www.w3.org/2000/svg" xmlns:xlink="http://www.w3.org/1999/xlink"><g id="tight-bounds" transform="matrix(1,0,0,1,0.2400000000000091,-0.09999999999999432)"><svg viewBox="0 0 395.52 247.2" height="247.2" width="395.52"><g><svg></svg></g><g><svg viewBox="0 0 395.52 247.2" height="247.2" width="395.52"><g transform="matrix(1,0,0,1,75.54432000000001,51.9947966141079)"><svg viewBox="0 0 244.43135999999996 143.2104067717842" height="143.2104067717842" width="244.43135999999996"><g><svg viewBox="0 0 244.43135999999996 143.2104067717842" height="143.2104067717842" width="244.43135999999996"><g><svg viewBox="0 0 244.43136 143.21040677178422" height="143.2104067717842" width="244.43135999999996"><g><svg viewBox="0 0 244.43136 143.21040677178422" height="143.21040677178422" width="244.43136"><g id="textblocktransform"><svg viewBox="0 0 244.43136 143.21040677178422" height="143.21040677178422" width="244.43136" id="textblock"><g><svg viewBox="0 0 244.43136 143.21040677178422" height="143.21040677178422" width="244.43136"><g transform="matrix(1,0,0,1,0,0)"><svg width="244.43136" viewBox="-0.25 -35 60.25 35.3" height="143.21040677178422" data-palette-color="#d0f4ea"><path d="M9.45 0.3Q6.45 0.3 3.9-1 1.35-2.3-0.25-4.7L-0.25-4.7 1.95-7.2Q4.85-2.9 9.5-2.9L9.5-2.9Q16-2.9 16-10.6L16-10.6 16-31.8 3.2-31.8 3.2-35 19.65-35 19.65-10.75Q19.65-5.25 17.07-2.48 14.5 0.3 9.45 0.3L9.45 0.3ZM56.35-35L60-35 60 0 56.95 0 34.45-28.4 34.45 0 30.75 0 30.75-35 33.8-35 56.35-6.6 56.35-35Z" opacity="1" transform="matrix(1,0,0,1,0,0)" fill="#d0f4ea" class="wordmark-text-0" data-fill-palette-color="primary" id="text-0"></path></svg></g></svg></g></svg></g></svg></g></svg></g></svg></g></svg></g><path d="M142.204 45.995L142.204 2.28 384.843 2.28 384.843 244.92 142.204 244.92 142.204 201.205 155.119 201.205 155.119 232.005 371.928 232.005 371.928 15.195 155.119 15.195 155.119 45.995Z" fill="#d0f4ea" stroke="transparent" data-fill-palette-color="primary"></path></svg></g><defs></defs></svg><rect width="395.52" height="247.2" fill="none" stroke="none" visibility="hidden"></rect></g></svg></g></svg>